<?xml version="1.0" encoding="UTF-8"?> <svg xmlns="http://www.w3.org/2000/svg" width="615" height="414" viewBox="0 0 615 414" fill="none"><path d="M509.183 361.059C520.163 361.059 529.063 352.17 529.063 341.206C529.063 330.241 520.163 321.353 509.183 321.353C498.204 321.353 489.304 330.241 489.304 341.206C489.304 352.17 498.204 361.059 509.183 361.059Z" fill="#5C97CF"></path><path d="M485.517 69.9201C486.199 73.9853 486.88 78.0504 487.581 82.1155C488.111 85.2164 493.052 85.0273 492.522 81.8886C491.841 77.8235 491.159 73.7584 490.459 69.6933C489.947 66.5924 484.987 66.7815 485.517 69.9201Z" fill="#3A3A3A"></path><path d="M482.223 78.5231C486.805 78.3907 491.33 77.6912 495.76 76.5C498.846 75.668 497.35 70.9601 494.264 71.7731C490.232 72.8508 486.18 73.437 481.996 73.5693C478.815 73.6638 479.042 78.6176 482.223 78.5231Z" fill="#3A3A3A"></path><path d="M555.815 94.1029C556.232 77.5588 542.714 63.3592 526.28 62.4895C521.3 62.2248 521.887 54.5105 526.867 54.7752C547.636 55.8719 564.07 74.0231 563.54 94.6891C563.407 99.6618 555.702 99.0567 555.815 94.1029Z" fill="#3A3A3A"></path><path d="M540.12 96.4286C540.385 86.2563 531.979 77.5777 521.925 77.0483C516.946 76.7836 517.533 69.0693 522.512 69.3341C536.92 70.0904 548.223 82.7206 547.844 96.9958C547.712 101.968 539.987 101.382 540.12 96.4286Z" fill="#3A3A3A"></path><path d="M526.659 98.7164C526.772 94.6134 523.251 91.229 519.256 91.021C514.276 90.7563 514.863 83.042 519.843 83.3067C528.173 83.7416 534.591 91.0777 534.383 99.3025C534.251 104.275 526.545 103.67 526.659 98.7164Z" fill="#3A3A3A"></path><path d="M519.918 100.891C514.958 100.513 515.526 92.8172 520.505 93.1765C525.466 93.5546 524.898 101.25 519.918 100.891Z" fill="#3A3A3A"></path><path d="M565.112 129.006L565.017 128.817H564.355C553.657 126.567 501.118 126.113 485.556 128.817H485.518C472.511 131.616 462.76 143.168 462.76 156.99C462.76 172.91 475.692 185.824 491.633 185.824C507.575 185.824 520.506 172.91 520.506 156.99H529.385C529.385 172.91 542.317 185.824 558.258 185.824C574.2 185.824 587.131 172.91 587.131 156.99C587.15 143.414 577.759 132.069 565.112 129.006Z" fill="white"></path><path d="M558.277 187.714C541.957 187.714 528.552 174.952 527.568 158.88H522.361C521.377 174.952 507.972 187.714 491.652 187.714C474.688 187.714 460.886 173.931 460.886 156.989C460.886 142.676 470.996 130.103 484.968 127.002C485.101 126.964 485.215 126.926 485.347 126.926C501.08 124.223 552.957 124.62 564.544 126.926H565.017C565.453 126.926 565.869 127.078 566.191 127.324C579.69 130.897 589.043 142.998 589.043 156.989C589.043 173.931 575.241 187.714 558.277 187.714ZM520.525 155.099H529.404C530.446 155.099 531.298 155.95 531.298 156.989C531.298 171.851 543.396 183.933 558.277 183.933C573.158 183.933 585.256 171.851 585.256 156.989C585.256 144.529 576.793 133.771 564.657 130.84C564.525 130.803 564.392 130.765 564.26 130.708C564.165 130.708 564.052 130.689 563.957 130.67C553.373 128.458 501.175 128.061 485.953 130.67C485.934 130.67 485.934 130.67 485.915 130.67C473.59 133.317 464.634 144.397 464.634 156.989C464.634 171.851 476.733 183.933 491.614 183.933C506.495 183.933 518.593 171.851 518.593 156.989C518.631 155.95 519.483 155.099 520.525 155.099Z" fill="#3A3A3A"></path><path d="M485.499 148.954C485.499 155.571 485.499 162.189 485.499 168.807C485.499 172.456 491.178 172.456 491.178 168.807C491.178 162.189 491.178 155.571 491.178 148.954C491.178 145.305 485.499 145.305 485.499 148.954Z" fill="#1E5B95"></path><path d="M477.926 161.716C484.874 161.716 491.803 161.716 498.752 161.716C502.406 161.716 502.406 156.044 498.752 156.044C491.803 156.044 484.874 156.044 477.926 156.044C474.272 156.044 474.272 161.716 477.926 161.716Z" fill="#1E5B95"></path><path d="M517.42 147.536C518.688 147.536 519.938 147.536 521.206 147.536C523.043 147.536 523.043 144.7 521.206 144.7C519.938 144.7 518.688 144.7 517.42 144.7C515.602 144.7 515.583 147.536 517.42 147.536Z" fill="#3A3A3A"></path><path d="M528.723 147.536C529.991 147.536 531.241 147.536 532.509 147.536C534.346 147.536 534.346 144.7 532.509 144.7C531.241 144.7 529.991 144.7 528.723 144.7C526.905 144.7 526.886 147.536 528.723 147.536Z" fill="#3A3A3A"></path><path d="M556.005 153.284C561.173 158.445 569.201 150.429 564.032 145.267C558.864 140.105 550.836 148.122 556.005 153.284Z" fill="#1E5B95"></path><path d="M564.506 161.773C569.674 166.935 577.702 158.918 572.533 153.756C567.384 148.595 559.337 156.611 564.506 161.773Z" fill="#1E5B95"></path><path d="M546.841 162.435C552.01 167.597 560.038 159.58 554.869 154.418C549.719 149.256 541.672 157.254 546.841 162.435Z" fill="#1E5B95"></path><path d="M555.361 170.924C560.53 176.086 568.557 168.069 563.389 162.908C558.22 157.746 550.192 165.763 555.361 170.924Z" fill="#1E5B95"></path><path d="M527.36 128.855C526.811 128.855 526.261 128.609 525.883 128.155C524.993 127.059 523.781 124.487 524.879 121.84C526.394 118.21 531.43 115.998 540.253 115.09C546.823 114.429 553.241 114.674 558.883 114.882C570.811 115.336 577.078 115.317 577.702 109.721C577.816 108.681 578.763 107.924 579.785 108.057C580.826 108.17 581.565 109.116 581.451 110.137C580.41 119.496 570.375 119.099 558.731 118.664C553.203 118.456 546.955 118.21 540.632 118.853C530.805 119.855 528.78 122.294 528.363 123.277C527.852 124.487 528.798 125.735 528.817 125.754C529.48 126.567 529.348 127.758 528.533 128.42C528.193 128.704 527.776 128.855 527.36 128.855Z" fill="#3A3A3A"></path><path d="M525.996 242.66C525.996 243.813 525.977 244.966 525.901 246.101C525.447 253.664 522.834 254.458 518.612 255.139C518.234 255.195 517.817 255.271 517.4 255.347C513.746 255.99 492.731 256.349 490.213 252.265C487.146 247.311 487.619 237.139 487.96 232.998C488.282 229.065 486.975 222.069 492.182 220.216C494.643 219.347 498.43 219.328 501.478 219.309C502.311 219.309 503.087 219.309 503.769 219.29C507.328 219.176 510.944 219.176 514.523 219.271C515.299 219.29 516.075 219.271 516.814 219.252C520.259 219.158 523.838 219.063 525.011 224.111C525.75 227.288 525.826 232.071 525.863 235.248C525.882 236.212 525.901 237.195 525.939 238.198C525.939 239.653 525.996 241.166 525.996 242.66ZM489.834 238.878C489.834 243.095 490.251 248.275 492.011 251.149C493.393 253.38 511.266 254.269 517.022 253.267C517.457 253.191 517.874 253.116 518.271 253.059C521.888 252.492 523.402 252.246 523.781 246.006C523.932 243.492 523.857 240.826 523.781 238.254C523.762 237.252 523.724 236.269 523.705 235.286C523.667 232.204 523.592 227.553 522.91 224.603C522.172 221.389 520.524 221.294 516.851 221.389C516.075 221.408 515.28 221.426 514.447 221.408C510.906 221.313 507.328 221.313 503.825 221.426C503.125 221.445 502.33 221.445 501.478 221.464C498.581 221.483 494.984 221.502 492.882 222.24C490.345 223.128 490.156 226.153 490.156 230.313C490.156 231.334 490.156 232.298 490.08 233.187C489.967 234.284 489.834 236.42 489.834 238.878Z" fill="#3A3A3A"></path><path d="M497.861 226.134C494.832 227.212 494.718 231.712 494.491 234.435C494.207 237.933 494.113 243.662 496.176 246.725C496.517 247.235 496.99 247.576 497.502 247.878C497.861 248.256 498.372 248.54 499.035 248.578C499.13 248.578 499.243 248.597 499.357 248.597C500.626 248.88 502.045 248.937 503.39 248.956C506.968 249.334 510.679 249.712 514.03 249.107C517.154 248.559 518.972 246.536 519.312 243.397C519.577 240.958 519.312 238.368 519.274 235.929C519.237 233.754 519.596 231.126 519.104 229.008C518.29 225.454 515.242 225.681 512.156 225.586C509.694 225.51 507.214 225.51 504.753 225.605C502.613 225.681 499.887 225.416 497.861 226.134Z" fill="#FF9A31"></path><path d="M483.832 249.088C485.763 249.183 487.656 249.05 489.55 248.729C490.894 248.521 490.326 246.46 488.982 246.668C487.278 246.952 485.555 247.027 483.832 246.952C482.45 246.914 482.45 249.031 483.832 249.088Z" fill="#3A3A3A"></path><path d="M483.699 242.263C484.968 242.244 486.218 242.225 487.486 242.187C488.849 242.168 488.868 240.032 487.486 240.05C486.218 240.069 484.968 240.088 483.699 240.126C482.336 240.164 482.317 242.282 483.699 242.263Z" fill="#3A3A3A"></path><path d="M483.113 236.363C485.006 236.326 486.899 236.288 488.793 236.269C490.156 236.25 490.175 234.113 488.793 234.132C486.899 234.17 485.006 234.208 483.113 234.227C481.75 234.265 481.75 236.382 483.113 236.363Z" fill="#3A3A3A"></path><path d="M483.473 229.973C485.366 229.935 487.259 229.897 489.152 229.878C490.516 229.859 490.535 227.723 489.152 227.742C487.259 227.779 485.366 227.817 483.473 227.836C482.109 227.874 482.109 229.992 483.473 229.973Z" fill="#3A3A3A"></path><path d="M530.577 246.271C528.76 246.422 526.942 246.384 525.125 246.158C523.761 245.987 523.78 248.124 525.125 248.294C526.942 248.521 528.741 248.559 530.577 248.408C531.94 248.275 531.959 246.158 530.577 246.271Z" fill="#3A3A3A"></path><path d="M529.688 239.313C528.419 239.332 527.17 239.351 525.901 239.389C524.538 239.408 524.519 241.544 525.901 241.525C527.17 241.506 528.419 241.487 529.688 241.45C531.051 241.412 531.07 239.275 529.688 239.313Z" fill="#3A3A3A"></path><path d="M530.464 233.376C528.571 233.414 526.678 233.452 524.784 233.471C523.421 233.49 523.402 235.626 524.784 235.607C526.678 235.569 528.571 235.532 530.464 235.513C531.846 235.475 531.846 233.357 530.464 233.376Z" fill="#3A3A3A"></path><path d="M530.407 227.004C528.514 227.042 526.621 227.08 524.727 227.099C523.364 227.118 523.345 229.254 524.727 229.235C526.621 229.198 528.514 229.16 530.407 229.141C531.789 229.103 531.789 226.966 530.407 227.004Z" fill="#3A3A3A"></path><path d="M519.407 259.506C519.502 257.578 519.369 255.687 519.047 253.796C518.839 252.454 516.775 253.021 516.983 254.363C517.267 256.065 517.343 257.786 517.267 259.506C517.211 260.887 519.35 260.868 519.407 259.506Z" fill="#3A3A3A"></path><path d="M512.553 259.639C512.534 258.372 512.515 257.124 512.477 255.857C512.459 254.496 510.319 254.477 510.338 255.857C510.357 257.124 510.376 258.372 510.414 259.639C510.452 261 512.591 261 512.553 259.639Z" fill="#3A3A3A"></path><path d="M506.646 260.206C506.608 258.315 506.571 256.424 506.552 254.534C506.533 253.172 504.393 253.153 504.412 254.534C504.45 256.424 504.488 258.315 504.507 260.206C504.545 261.586 506.684 261.586 506.646 260.206Z" fill="#3A3A3A"></path><path d="M500.247 259.847C500.209 257.956 500.171 256.066 500.152 254.175C500.133 252.814 497.994 252.795 498.013 254.175C498.051 256.066 498.089 257.956 498.107 259.847C498.145 261.228 500.285 261.228 500.247 259.847Z" fill="#3A3A3A"></path><path d="M516.454 214.676C516.605 216.492 516.567 218.307 516.34 220.122C516.17 221.483 518.309 221.464 518.48 220.122C518.707 218.307 518.745 216.511 518.593 214.676C518.48 213.334 516.359 213.315 516.454 214.676Z" fill="#3A3A3A"></path><path d="M509.619 214.809C509.638 216.076 509.657 217.324 509.695 218.59C509.714 219.952 511.853 219.971 511.834 218.59C511.815 217.324 511.796 216.076 511.759 214.809C511.721 213.429 509.6 213.429 509.619 214.809Z" fill="#3A3A3A"></path><path d="M503.693 214.431C503.731 216.321 503.769 218.212 503.788 220.103C503.807 221.464 505.946 221.483 505.927 220.103C505.889 218.212 505.851 216.321 505.832 214.431C505.795 213.069 503.674 213.069 503.693 214.431Z" fill="#3A3A3A"></path><path d="M497.313 214.564C497.35 216.454 497.388 218.345 497.407 220.236C497.426 221.597 499.565 221.616 499.547 220.236C499.509 218.345 499.471 216.454 499.452 214.564C499.414 213.183 497.275 213.183 497.313 214.564Z" fill="#3A3A3A"></path><path d="M103.791 156.952C103.791 158.105 103.772 159.258 103.696 160.393C103.242 167.956 100.629 168.75 96.4071 169.431C96.0284 169.487 95.6119 169.563 95.1954 169.639C91.5413 170.282 70.5257 170.641 68.0076 166.557C64.9405 161.603 65.4138 151.431 65.7546 147.29C66.0765 143.357 64.7701 136.361 69.9767 134.508C72.4379 133.639 76.2245 133.62 79.2728 133.601C80.1058 133.601 80.8821 133.601 81.5636 133.563C85.123 133.45 88.7392 133.45 92.3176 133.544C93.0938 133.563 93.8701 133.544 94.6085 133.525C98.0543 133.431 101.633 133.336 102.806 138.384C103.545 141.561 103.621 146.345 103.658 149.521C103.677 150.485 103.696 151.468 103.734 152.471C103.753 153.926 103.791 155.439 103.791 156.952ZM67.629 153.151C67.629 157.368 68.0455 162.548 69.8063 165.422C71.1884 167.653 89.0611 168.542 94.8167 167.54C95.2522 167.464 95.6687 167.389 96.0663 167.332C99.6825 166.765 101.197 166.519 101.576 160.279C101.727 157.765 101.652 155.099 101.576 152.527C101.557 151.525 101.519 150.542 101.5 149.559C101.462 146.477 101.386 141.826 100.705 138.876C99.9665 135.662 98.3193 135.567 94.6463 135.662C93.8701 135.681 93.0749 135.7 92.2418 135.681C88.7014 135.586 85.123 135.586 81.6204 135.7C80.9199 135.718 80.1247 135.718 79.2728 135.737C76.376 135.756 72.7787 135.756 70.6772 136.513C68.1402 137.401 67.9508 140.426 67.9508 144.586C67.9508 145.607 67.9508 146.571 67.8751 147.46C67.7804 148.576 67.629 150.693 67.629 153.151Z" fill="#3A3A3A"></path><path d="M75.6752 140.408C72.646 141.485 72.5324 145.985 72.3052 148.708C72.0212 152.206 71.9265 157.935 73.9902 160.998C74.331 161.508 74.8043 161.849 75.3155 162.151C75.6752 162.529 76.1864 162.813 76.8491 162.851C76.9437 162.851 77.0573 162.87 77.1709 162.87C78.4395 163.153 79.8594 163.21 81.2037 163.229C84.782 163.607 88.4929 163.985 91.844 163.38C94.9679 162.832 96.7855 160.809 97.1263 157.67C97.3914 155.231 97.1263 152.641 97.0884 150.202C97.0506 148.027 97.4103 145.399 96.918 143.282C96.1039 139.727 93.0557 139.954 89.9696 139.859C87.5084 139.784 85.0281 139.784 82.5668 139.878C80.4085 139.973 77.7011 139.689 75.6752 140.408Z" fill="#FF9A31"></path><path d="M61.6269 163.38C63.558 163.475 65.4513 163.342 67.3446 163.021C68.6889 162.813 68.1209 160.752 66.7766 160.96C65.0727 161.244 63.3498 161.319 61.6269 161.244C60.2637 161.187 60.2637 163.324 61.6269 163.38Z" fill="#3A3A3A"></path><path d="M61.5131 156.555C62.7817 156.536 64.0312 156.517 65.2997 156.479C66.6629 156.46 66.6818 154.324 65.2997 154.342C64.0312 154.361 62.7817 154.38 61.5131 154.418C60.131 154.437 60.131 156.574 61.5131 156.555Z" fill="#3A3A3A"></path><path d="M60.9265 150.637C62.8198 150.599 64.7131 150.561 66.6064 150.542C67.9695 150.523 67.9885 148.387 66.6064 148.405C64.7131 148.443 62.8198 148.481 60.9265 148.5C59.5633 148.538 59.5444 150.674 60.9265 150.637Z" fill="#3A3A3A"></path><path d="M61.2861 144.246C63.1794 144.208 65.0727 144.17 66.966 144.151C68.3292 144.132 68.3481 141.996 66.966 142.015C65.0727 142.053 63.1794 142.09 61.2861 142.109C59.904 142.147 59.904 144.284 61.2861 144.246Z" fill="#3A3A3A"></path><path d="M108.391 160.544C106.574 160.695 104.756 160.658 102.939 160.431C101.575 160.26 101.594 162.397 102.939 162.567C104.756 162.794 106.555 162.832 108.391 162.681C109.755 162.567 109.755 160.431 108.391 160.544Z" fill="#3A3A3A"></path><path d="M107.502 153.586C106.233 153.605 104.984 153.624 103.715 153.662C102.352 153.681 102.333 155.817 103.715 155.798C104.984 155.779 106.233 155.761 107.502 155.723C108.865 155.685 108.865 153.567 107.502 153.586Z" fill="#3A3A3A"></path><path d="M108.278 147.668C106.384 147.706 104.491 147.744 102.598 147.763C101.235 147.782 101.216 149.918 102.598 149.899C104.491 149.861 106.384 149.824 108.278 149.805C109.641 149.767 109.66 147.63 108.278 147.668Z" fill="#3A3A3A"></path><path d="M108.221 141.277C106.328 141.315 104.435 141.353 102.541 141.372C101.178 141.391 101.159 143.527 102.541 143.508C104.435 143.471 106.328 143.433 108.221 143.414C109.584 143.376 109.584 141.258 108.221 141.277Z" fill="#3A3A3A"></path><path d="M97.2018 173.798C97.2965 171.87 97.164 169.979 96.8421 168.088C96.6339 166.746 94.5702 167.313 94.7784 168.655C95.0624 170.357 95.1381 172.078 95.0624 173.798C95.0245 175.16 97.145 175.16 97.2018 173.798Z" fill="#3A3A3A"></path><path d="M90.3671 173.912C90.3482 172.645 90.3293 171.397 90.2914 170.13C90.2725 168.769 88.133 168.75 88.152 170.13C88.1709 171.397 88.1898 172.645 88.2277 173.912C88.2656 175.292 90.3861 175.292 90.3671 173.912Z" fill="#3A3A3A"></path><path d="M84.4603 174.498C84.4224 172.607 84.3846 170.716 84.3656 168.826C84.3467 167.464 82.2073 167.445 82.2262 168.826C82.2641 170.716 82.3019 172.607 82.3209 174.498C82.3587 175.859 84.4792 175.859 84.4603 174.498Z" fill="#3A3A3A"></path><path d="M78.0609 174.139C78.023 172.248 77.9851 170.358 77.9662 168.467C77.9473 167.106 75.8079 167.087 75.8268 168.467C75.8647 170.358 75.9025 172.248 75.9214 174.139C75.9593 175.501 78.0798 175.52 78.0609 174.139Z" fill="#3A3A3A"></path><path d="M94.2673 128.968C94.4188 130.784 94.3809 132.599 94.1537 134.414C93.9833 135.775 96.1227 135.756 96.2931 134.414C96.5203 132.599 96.5582 130.803 96.4067 128.968C96.2931 127.607 94.1537 127.607 94.2673 128.968Z" fill="#3A3A3A"></path><path d="M87.4326 129.082C87.4516 130.349 87.4705 131.597 87.5084 132.863C87.5273 134.225 89.6667 134.244 89.6478 132.863C89.6288 131.597 89.6099 130.349 89.5721 129.082C89.5342 127.721 87.3948 127.721 87.4326 129.082Z" fill="#3A3A3A"></path><path d="M81.5064 128.723C81.5442 130.613 81.5821 132.504 81.601 134.395C81.62 135.756 83.7594 135.775 83.7404 134.395C83.7026 132.504 83.6647 130.613 83.6458 128.723C83.6079 127.361 81.4685 127.342 81.5064 128.723Z" fill="#3A3A3A"></path><path d="M75.1071 128.837C75.1449 130.727 75.1828 132.618 75.2017 134.509C75.2207 135.87 77.3601 135.889 77.3411 134.509C77.3033 132.618 77.2654 130.727 77.2465 128.837C77.2086 127.475 75.0881 127.456 75.1071 128.837Z" fill="#3A3A3A"></path><path d="M546.179 219.479C546.387 219.46 546.595 219.441 546.804 219.422C548.356 219.271 549.7 218.893 550.836 217.758C551.821 216.775 552.578 215.149 552.502 213.731C552.446 212.256 551.953 210.725 550.836 209.704C549.663 208.626 548.394 208.191 546.804 208.04C546.595 208.021 546.387 208.002 546.179 207.983C544.797 207.851 543.055 208.721 542.108 209.666C541.105 210.668 540.347 212.313 540.423 213.731C540.537 216.586 542.96 219.781 546.179 219.479Z" fill="#1E5B95"></path><path d="M608.657 300.782C608.866 300.763 609.074 300.744 609.282 300.725C610.835 300.574 612.179 300.195 613.315 299.061C614.299 298.078 615.057 296.452 614.981 295.034C614.924 293.559 614.432 292.027 613.315 291.006C612.141 289.929 610.872 289.494 609.282 289.342C609.074 289.324 608.866 289.305 608.657 289.286C607.275 289.153 605.533 290.023 604.587 290.969C603.583 291.971 602.826 293.616 602.902 295.034C603.015 297.889 605.439 301.084 608.657 300.782Z" fill="#1E5B95"></path><path d="M123.973 26.8487C130.486 26.8487 130.486 16.7521 123.973 16.7521C117.46 16.7521 117.46 26.8487 123.973 26.8487Z" fill="#FF9A31"></path><path d="M75.8641 375.75C72.8726 375.75 70.4492 373.33 70.4492 370.343C70.4492 367.355 72.8726 364.935 75.8641 364.935C78.8555 364.935 81.2789 367.355 81.2789 370.343C81.2789 373.33 78.8555 375.75 75.8641 375.75ZM75.8641 366.731C73.8761 366.731 72.2479 368.357 72.2479 370.343C72.2479 372.328 73.8761 373.954 75.8641 373.954C77.852 373.954 79.4803 372.328 79.4803 370.343C79.4803 368.357 77.852 366.731 75.8641 366.731Z" fill="#3A3A3A"></path><path d="M97.3532 380.571H54.3564C45.136 380.571 37.79 373.33 36.4836 362.95C33.5112 339.277 36.3511 273.422 36.4647 270.624C36.4647 260.849 44.4923 252.851 54.3374 252.851H97.3342C106.63 252.851 114.147 260.282 115.207 270.511C118.198 299.59 115.245 362.174 115.207 362.798C115.245 372.555 107.217 380.571 97.3532 380.571ZM54.3564 256.443C46.4802 256.443 40.0809 262.834 40.0809 270.7C40.043 271.456 37.1274 339.126 40.062 362.496C41.1411 371.023 47.0104 376.979 54.3564 376.979H97.3532C105.229 376.979 111.629 370.588 111.629 362.723C111.667 362.004 114.601 299.704 111.629 270.889C110.758 262.38 104.889 256.443 97.3532 256.443H54.3564Z" fill="#3A3A3A"></path><path d="M58.2753 265.084C52.0274 265.084 46.9344 270.038 46.9344 276.126C46.9155 276.75 44.5299 330.845 46.9155 349.506C47.616 354.933 51.4594 360.775 58.2564 360.775H93.4149C99.6628 360.775 104.756 355.821 104.756 349.733C104.775 349.147 107.198 299.326 104.775 276.315C104.074 269.698 99.4167 265.084 93.4338 265.084H58.2753Z" fill="#5C97CF"></path><path d="M12.0794 270.7C7.72477 263.647 5.26348 255.536 4.86589 247.084H23.761C23.8178 249.523 23.8746 280.342 24.1207 282.763C24.2343 283.992 25.2567 284.899 26.4684 284.899C26.5441 284.899 26.6199 284.899 26.7145 284.899C28.002 284.767 28.9486 283.613 28.835 282.309C28.6078 280.059 28.551 249.391 28.4942 247.084H52.009V254.174C52.009 255.479 54.9626 256.538 56.2689 256.538C57.5753 256.538 56.7423 255.479 56.7423 254.174V247.084H80.276C80.2192 249.334 80.1624 251.584 79.9541 253.796C79.8216 255.101 80.7871 256.254 82.0746 256.368C83.3431 256.462 84.5359 255.555 84.6684 254.25C84.8956 251.887 84.9524 249.485 85.0092 247.084H103.942C103.829 249.334 103.639 251.565 103.223 253.758C102.977 255.044 103.829 256.273 105.116 256.519C106.366 256.746 107.634 255.914 107.861 254.628C108.467 251.395 108.77 248.067 108.77 244.74C108.77 214.79 84.3844 190.437 54.3946 190.437C24.4237 190.437 0.037976 214.771 0.019043 244.702C0.019043 244.721 0.019043 244.721 0.019043 244.74C0.019043 244.758 0.019043 244.758 0.019043 244.777C0.037976 261.057 7.25144 276.334 19.8608 286.695C20.2963 287.055 20.8264 287.225 21.3565 287.225C22.0381 287.225 22.7197 286.941 23.193 286.355C24.0261 285.353 23.8746 283.859 22.8712 283.027C20.088 280.74 17.6078 278.187 15.4305 275.426L12.0794 270.7ZM103.923 242.376H85.0471C84.8577 233.811 83.6082 225.794 81.4877 218.761H96.5962C100.894 225.7 103.507 233.735 103.923 242.376ZM93.3018 214.034H79.8784C77.3035 207.284 73.8766 201.706 69.8439 197.641C79.1968 200.723 87.319 206.49 93.3018 214.034ZM56.7423 195.391C63.88 196.676 70.2793 203.748 74.615 214.034H56.7423V195.391ZM56.7423 218.761H76.3568C78.6667 225.737 80.0866 233.792 80.3138 242.376H56.7423V218.761ZM52.009 195.391V214.034H34.1363C38.4909 203.748 44.8713 196.695 52.009 195.391ZM23.7042 242.376H4.84695C5.26348 233.735 7.87623 225.7 12.1551 218.761H27.2447C25.1431 225.794 23.9125 233.811 23.7042 242.376ZM15.4684 214.034C21.4512 206.49 29.5545 200.723 38.8885 197.641C34.8747 201.706 31.4478 207.284 28.8729 214.034H15.4684ZM32.3944 218.761H52.009V242.376H28.4374C28.6646 233.811 30.0846 225.737 32.3944 218.761Z" fill="#3A3A3A"></path><path d="M26.4874 290.609C28.5322 290.817 30.8988 290.042 32.262 288.435C33.398 287.092 34.3446 285.447 34.2689 283.613C34.1932 281.723 33.4926 280.229 32.262 278.792C30.8988 277.185 28.5511 276.41 26.4874 276.618C24.5752 276.807 22.928 277.261 21.527 278.66C20.3153 279.87 19.3876 281.874 19.4822 283.613C19.558 285.429 20.1638 287.3 21.527 288.567C22.9848 289.872 24.5373 290.401 26.4874 290.609Z" fill="#1E5B95"></path><path d="M30.5388 292.368C30.3873 292.538 30.2358 292.708 30.1033 292.878C29.4975 293.559 29.4975 294.448 30.1033 295.128C30.2548 295.298 30.4062 295.469 30.5388 295.639C31.9019 297.17 34.4768 295.922 34.4768 294.013C34.4768 292.084 31.9019 290.836 30.5388 292.368Z" fill="#1E5B95"></path><path d="M59.0141 311.218L67.9694 315.378C68.1966 315.492 68.4427 315.548 68.7078 315.548C69.0486 315.548 69.3704 315.454 69.6355 315.284C70.1467 314.962 70.4307 314.414 70.4307 313.828V313.79C70.4307 313.109 70.0331 312.504 69.4272 312.221L63.8231 309.63L69.4272 307.04C70.0331 306.756 70.4307 306.132 70.4307 305.471V305.433C70.4307 304.828 70.1277 304.279 69.6355 303.977C69.3515 303.807 69.0296 303.712 68.6888 303.712C68.4427 303.712 68.1776 303.769 67.9504 303.863L58.9951 308.023C58.3893 308.307 57.9917 308.931 57.9917 309.592V309.725C58.0106 310.311 58.4082 310.935 59.0141 311.218Z" fill="#3A3A3A"></path><path d="M70.5254 319.689C70.8473 320.143 71.3774 320.408 71.9264 320.408H71.9643C72.7216 320.408 73.3843 319.916 73.6304 319.197L79.5375 300.952C79.7079 300.422 79.6132 299.836 79.2914 299.401C78.9695 298.947 78.4394 298.683 77.8903 298.683H77.8525C77.0951 298.683 76.4325 299.174 76.1864 299.893L70.2793 318.139C70.1089 318.649 70.2035 319.235 70.5254 319.689Z" fill="#3A3A3A"></path><path d="M79.367 305.395C79.367 306.076 79.7646 306.681 80.3704 306.964L85.9746 309.555L80.3704 312.145C79.7646 312.429 79.367 313.052 79.367 313.714V313.752C79.367 314.357 79.6699 314.887 80.1622 315.208C80.4461 315.378 80.768 315.473 81.0899 315.473C81.336 315.473 81.5821 315.416 81.8283 315.302L90.7836 311.143C91.3894 310.859 91.787 310.235 91.787 309.573V309.441C91.787 308.76 91.3894 308.155 90.7836 307.872L81.8283 303.712C81.6011 303.599 81.3549 303.561 81.0899 303.561C80.7491 303.561 80.4272 303.655 80.1432 303.826C79.632 304.147 79.3291 304.695 79.3291 305.3V305.395H79.367Z" fill="#3A3A3A"></path><path d="M546.103 393.202C546.103 404.698 529.991 414 510.13 414C490.27 414 477.944 410.37 477.944 398.874C477.944 389.515 479.838 378.076 491.197 378.076C506.817 378.076 498.903 391.651 508.237 393.202C513.406 394.053 517.704 391.311 517.704 383.748C517.704 377.565 530.957 376.185 530.957 376.185C542.316 383.748 546.103 384.599 546.103 393.202Z" fill="#1E5B95"></path><path d="M274.093 225.151C256.145 226.702 241.642 241.355 242.551 259.828C243.478 278.679 259.325 292.992 277.993 293.181C324.417 293.672 319.513 219.687 274.093 225.151ZM277.974 287.508C262.374 287.546 249.158 275.426 248.212 259.828C247.284 244.664 259.212 232.109 274.074 230.824C312.129 226.248 317.166 287.414 277.974 287.508Z" fill="#4D4D4D"></path><path d="M374.816 260.849C374.665 256.046 376.369 246.441 372.052 242.83C367.925 239.37 358.155 240.164 352.002 240.088C350.563 235.286 349.465 230.275 347.553 225.681C346.796 223.866 343.729 220.216 344.297 218.515C345.13 215.981 353.441 212.2 355.278 209.534C356.773 207.359 357.644 205.223 356.963 202.557C355.808 198.019 350.279 194.521 347.136 191.59C343.975 188.641 339.942 183.082 335.777 181.418C329.074 178.714 322.486 187.884 318.036 192.971C312.66 189.832 307.188 188.111 301.565 185.483C297.551 183.592 296.794 183.517 295.961 179.471C295.279 176.181 296.51 172.437 295.714 168.996C293.386 158.937 282.859 161.981 274.926 162.624C266.804 163.286 257.678 161.773 257.243 171.87C257.11 175.103 258.776 179.338 257.621 182.439C256.637 185.105 255.898 184.424 252.263 185.748C246.621 187.79 241.453 190.248 236.435 193.405C232.516 188.603 228.029 181.985 221.421 182.307C214.397 182.647 207.676 191.609 203.246 196.147C194.139 205.468 203.662 211.859 210.573 218.95C205.707 225.662 202.318 232.828 200.198 240.826C193.988 239.634 185.241 238.765 180.886 243.076C176.361 247.557 178.481 259.128 178.898 264.611C179.277 269.414 179.068 275.616 183.688 278.206C188.232 280.777 195.767 279.567 201.258 278.792C202.545 283.784 204.117 288.681 206.199 293.408C206.692 294.523 208.869 297.567 208.717 298.607C208.68 298.891 207.411 299.817 206.938 300.649C204.287 305.281 194.972 309.498 197.263 316.324C199.421 322.714 212.75 334.191 219.15 336.649C226.249 339.391 232.194 331.828 236.984 326.874C243.706 331.658 250.881 334.607 259.06 335.817C258.719 342.094 256.296 350.83 260.158 355.349C263.055 358.733 269.909 357.996 273.62 358.09C278.618 358.223 285.017 358.941 289.751 357.05C293.177 355.689 294.938 353.723 295.696 350.149C296.472 346.462 293.159 339.769 294.806 336.8C296.188 334.305 304.518 332.83 307.567 331.223C312.641 328.538 316.863 323.565 322.164 328.311C327.768 333.321 330.267 341.981 338.295 337.103C344.183 333.529 350.753 326.647 354.255 320.842C358.212 314.3 355.334 311.767 350.166 307.134C344.921 302.426 342.952 302.71 346.038 295.676C348.575 289.891 350.374 283.954 352.229 277.941C358.288 278.263 367.168 279.7 371.882 276.693C376.842 273.574 374.968 265.462 374.816 260.849ZM365.596 272.099C361.469 273.403 354.558 272.174 350.242 272.212C349.295 272.212 348.594 272.609 348.14 273.176C347.875 273.46 347.648 273.838 347.515 274.292C344.978 282.309 341.324 289.683 338.503 297.416C337.235 300.876 337.67 302.729 339.885 305.565C342.346 308.723 348.329 310.803 349.806 314.471C351.377 318.347 343.672 324.983 341.248 327.403C339.98 328.67 337.746 331.412 335.966 331.884C332.501 332.811 331.271 330.353 328.809 327.479C326.31 324.567 323.754 319.992 319.494 319.462C316.522 319.103 313.265 321.447 310.785 322.828C304.367 326.401 298.801 329.256 291.455 330.504C290.603 330.655 289.599 331.62 289.467 332.489C288.974 336.139 289.807 339.466 289.807 343.097C289.845 352.721 281.42 352.645 273.677 352.456C266.785 352.286 264.172 352.286 264.456 345.101C264.608 341.244 265.081 337.273 264.797 333.397C264.683 331.752 263.585 330.712 261.957 330.561C253.267 329.729 245.637 326.628 238.764 321.221C238.404 320.937 238.026 320.748 237.647 320.653C236.738 320.313 235.659 320.389 234.75 321.221C232.251 323.489 227.613 329.729 224.432 330.655C218.922 332.263 213.924 325.853 210.384 322.487C207.581 319.821 202.545 316.55 203.965 312.164C204.969 309.12 209.532 306.132 211.822 303.958C214.322 301.576 215.249 300.876 214.473 297.473C213.583 293.672 210.857 289.966 209.513 286.26C208.149 282.536 207.127 278.754 206.199 274.916C205.934 273.819 204.647 272.685 203.454 272.836C200.482 273.195 197.49 273.498 194.499 273.611C189.103 273.8 186.225 274.405 185.108 268.431C184.294 264.12 183.821 258.693 184.37 254.345C184.691 251.887 184.881 247.84 187.323 246.29C190.087 244.531 198.853 246.271 201.599 246.876C203.038 247.197 204.742 246.441 205.101 244.891C207.184 235.664 210.989 227.628 216.764 220.141C217.559 219.101 217.086 217.569 216.328 216.7C212.239 212.029 202.886 206.773 207.335 200.137C208.983 197.679 214.227 192.29 216.896 191.042C225.322 187.109 228.654 193.008 233.33 198.416C233.955 199.834 235.545 200.779 237.193 199.664C243.441 195.41 249.972 192.952 256.959 190.286C258.435 189.718 260.632 189.132 261.73 187.922C263.358 186.126 263.491 183.158 263.585 180.889C263.699 178.487 262.544 175.67 263.074 173.363C264.191 168.618 269.038 168.75 273.241 168.41C275.93 168.202 279.167 167.899 281.893 167.71C285.358 167.426 287.024 167.956 288.974 168.977C291.417 170.357 290.3 173.004 290.546 176.2C290.981 179.66 289.22 183.082 291.152 186.334C292.572 188.735 294.446 189.227 296.983 190.116C303.988 192.574 310.406 194.71 316.749 198.775C316.976 198.926 317.203 199.021 317.431 199.097C318.396 199.588 319.589 199.569 320.574 198.586C323.603 195.58 327.105 190.267 330.854 188.376C335.531 186.032 338.105 190.91 341.835 194.37C345.717 198 352.684 202.008 348.935 207.926C347.08 210.819 342.649 211.916 340.283 214.487C337.954 217.04 337.859 218.439 338.939 221.483C339.999 224.471 341.987 227.042 343.047 230.086C344.581 234.511 345.66 239.105 347.136 243.567C347.553 244.834 348.575 245.553 349.882 245.647C354.293 245.987 359.727 245.553 363.987 246.725C370.746 248.597 368.947 254.968 369.156 260.83C369.307 265.651 370.708 270.473 365.596 272.099Z" fill="#4D4D4D"></path><path d="M263.661 211.027C267.107 209.912 270.571 209.382 274.188 209.401C277.842 209.439 277.842 203.767 274.188 203.729C270.098 203.691 266.046 204.296 262.146 205.544C258.682 206.679 260.158 212.162 263.661 211.027Z" fill="#4D4D4D"></path><path d="M295.26 212.672C298.252 213.447 300.959 214.809 303.307 216.813C306.071 219.176 310.104 215.187 307.321 212.805C304.234 210.158 300.713 208.229 296.775 207.208C293.234 206.263 291.72 211.746 295.26 212.672Z" fill="#4D4D4D"></path><path d="M328.866 238.765C327.617 235.229 325.913 231.939 323.641 228.952C322.713 227.742 321.198 227.08 319.759 227.931C318.567 228.63 317.809 230.578 318.737 231.807C320.706 234.397 322.315 237.195 323.394 240.258C324.606 243.681 330.097 242.206 328.866 238.765Z" fill="#4D4D4D"></path><path d="M326.651 262.04C326.348 265.368 325.761 268.639 324.947 271.891C324.057 275.427 329.529 276.939 330.419 273.403C331.365 269.679 331.971 265.878 332.331 262.059C332.672 258.41 326.992 258.429 326.651 262.04Z" fill="#4D4D4D"></path><path d="M319.002 289.702C317.771 288.983 315.764 289.324 315.121 290.723C313.795 293.597 311.769 295.866 308.986 297.416C305.787 299.193 308.645 304.09 311.845 302.313C315.405 300.328 318.301 297.284 320.024 293.597C320.668 292.198 320.422 290.534 319.002 289.702Z" fill="#4D4D4D"></path><path d="M289.505 307.191C286.267 307.777 283.01 308.212 279.716 308.496C276.1 308.817 276.062 314.49 279.716 314.168C283.503 313.828 287.27 313.336 291.019 312.655C294.616 312.013 293.083 306.548 289.505 307.191Z" fill="#4D4D4D"></path><path d="M258.928 305.282C255.539 304.336 252.529 302.842 249.708 300.763C248.458 299.855 246.546 300.574 245.826 301.784C244.974 303.221 245.618 304.752 246.849 305.66C250.029 308.004 253.608 309.687 257.413 310.746C260.954 311.729 262.468 306.265 258.928 305.282Z" fill="#4D4D4D"></path><path d="M230.377 277.109C229.411 273.592 223.921 275.086 224.905 278.622C226.022 282.687 227.953 286.298 230.566 289.588C231.532 290.798 233.577 290.571 234.58 289.588C235.773 288.416 235.527 286.771 234.58 285.58C232.592 283.065 231.229 280.172 230.377 277.109Z" fill="#4D4D4D"></path><path d="M227.783 256.405C227.745 252.945 227.972 249.523 228.54 246.12C229.146 242.546 223.674 241.015 223.069 244.607C222.406 248.521 222.065 252.435 222.103 256.405C222.141 260.055 227.821 260.074 227.783 256.405Z" fill="#4D4D4D"></path><path d="M242.55 216.246C239.105 218.363 236.037 220.992 233.5 224.13C232.535 225.321 232.327 226.985 233.5 228.139C234.504 229.141 236.549 229.33 237.514 228.139C239.748 225.359 242.361 223.015 245.409 221.143C248.514 219.233 245.674 214.317 242.55 216.246Z" fill="#4D4D4D"></path><path d="M560.075 343.947C560 341.489 560.87 336.536 558.655 334.683C556.535 332.905 551.518 333.321 548.356 333.265C547.617 330.807 547.049 328.216 546.065 325.872C545.686 324.945 544.096 323.055 544.399 322.185C544.834 320.88 549.094 318.933 550.041 317.571C550.817 316.456 551.252 315.359 550.912 313.979C550.325 311.653 547.466 309.857 545.857 308.345C544.228 306.832 542.165 303.977 540.025 303.126C536.579 301.746 533.209 306.454 530.918 309.063C528.154 307.456 525.352 306.567 522.455 305.225C520.392 304.26 520.013 304.204 519.578 302.143C519.237 300.46 519.862 298.531 519.445 296.754C518.252 291.592 512.837 293.162 508.767 293.483C504.583 293.824 499.906 293.048 499.679 298.229C499.603 299.893 500.455 302.067 499.868 303.655C499.357 305.017 498.978 304.676 497.123 305.357C494.226 306.416 491.576 307.664 489.001 309.29C486.994 306.832 484.684 303.429 481.295 303.599C477.679 303.769 474.233 308.382 471.961 310.708C467.285 315.492 472.169 318.781 475.729 322.431C473.23 325.872 471.488 329.559 470.409 333.662C467.209 333.057 462.722 332.603 460.488 334.815C458.159 337.122 459.257 343.059 459.465 345.876C459.655 348.334 459.56 351.529 461.927 352.853C464.255 354.176 468.137 353.553 470.958 353.155C471.62 355.727 472.434 358.223 473.495 360.662C473.741 361.229 474.858 362.798 474.782 363.328C474.763 363.479 474.119 363.952 473.873 364.387C472.51 366.769 467.72 368.943 468.894 372.441C469.992 375.731 476.846 381.611 480.14 382.878C483.794 384.277 486.842 380.401 489.304 377.868C492.75 380.326 496.441 381.838 500.645 382.462C500.474 385.695 499.225 390.176 501.213 392.483C502.708 394.223 506.211 393.845 508.123 393.882C510.679 393.939 513.973 394.317 516.416 393.353C518.177 392.653 519.085 391.632 519.464 389.817C519.862 387.926 518.158 384.485 519.01 382.954C519.729 381.668 523.989 380.912 525.56 380.08C528.173 378.7 530.331 376.147 533.058 378.586C535.936 381.158 537.223 385.601 541.35 383.105C544.38 381.271 547.75 377.735 549.549 374.748C551.593 371.382 550.098 370.078 547.447 367.695C544.758 365.275 543.736 365.426 545.326 361.815C546.633 358.847 547.542 355.784 548.507 352.702C551.612 352.872 556.175 353.609 558.598 352.059C561.117 350.471 560.151 346.311 560.075 343.947ZM555.342 349.714C553.221 350.376 549.681 349.752 547.466 349.771C546.974 349.771 546.614 349.979 546.387 350.263C546.254 350.414 546.141 350.603 546.065 350.83C544.758 354.952 542.884 358.733 541.426 362.704C540.783 364.481 541.01 365.426 542.127 366.882C543.395 368.508 546.462 369.567 547.22 371.458C548.034 373.443 544.077 376.866 542.827 378.095C542.165 378.737 541.029 380.155 540.12 380.401C538.34 380.874 537.696 379.607 536.447 378.132C535.159 376.639 533.853 374.294 531.657 374.01C530.123 373.821 528.457 375.032 527.189 375.731C523.894 377.565 521.035 379.04 517.268 379.664C516.832 379.739 516.302 380.231 516.245 380.685C515.98 382.557 516.416 384.258 516.435 386.13C516.454 391.084 512.137 391.046 508.142 390.933C504.602 390.838 503.257 390.857 503.409 387.151C503.485 385.166 503.731 383.124 503.579 381.139C503.522 380.288 502.954 379.758 502.121 379.683C497.653 379.248 493.734 377.66 490.213 374.88C490.023 374.729 489.834 374.634 489.644 374.597C489.171 374.426 488.622 374.464 488.149 374.88C486.861 376.053 484.476 379.248 482.848 379.739C480.008 380.571 477.452 377.263 475.634 375.542C474.195 374.162 471.601 372.498 472.34 370.248C472.851 368.679 475.199 367.147 476.372 366.031C477.66 364.803 478.133 364.443 477.736 362.704C477.281 360.756 475.88 358.847 475.18 356.956C474.479 355.046 473.949 353.099 473.476 351.132C473.343 350.565 472.681 349.998 472.075 350.055C470.541 350.244 469.008 350.395 467.474 350.452C464.71 350.546 463.214 350.868 462.646 347.786C462.23 345.574 461.983 342.775 462.267 340.563C462.438 339.296 462.532 337.216 463.782 336.422C465.202 335.515 469.708 336.403 471.109 336.725C471.847 336.895 472.718 336.498 472.908 335.704C473.968 330.977 475.937 326.836 478.891 322.998C479.307 322.468 479.061 321.674 478.663 321.239C476.562 318.838 471.753 316.134 474.044 312.731C474.896 311.464 477.584 308.704 478.966 308.061C483.302 306.038 485.006 309.082 487.41 311.842C487.732 312.58 488.546 313.053 489.398 312.485C492.598 310.292 495.968 309.044 499.546 307.664C500.304 307.38 501.44 307.078 501.989 306.454C502.822 305.527 502.898 304.015 502.954 302.842C503.011 301.613 502.424 300.158 502.689 298.985C503.257 296.546 505.756 296.622 507.915 296.452C509.297 296.338 510.963 296.187 512.364 296.092C514.144 295.96 514.996 296.225 515.999 296.754C517.249 297.454 516.681 298.815 516.813 300.46C517.041 302.237 516.132 303.996 517.116 305.66C517.855 306.889 518.801 307.153 520.108 307.607C523.705 308.874 526.999 309.971 530.256 312.05C530.369 312.126 530.502 312.183 530.616 312.221C531.108 312.466 531.733 312.466 532.225 311.956C533.777 310.405 535.576 307.683 537.507 306.718C539.912 305.508 541.237 308.023 543.149 309.8C545.137 311.672 548.734 313.733 546.784 316.758C545.838 318.252 543.547 318.8 542.335 320.124C541.142 321.429 541.085 322.147 541.653 323.716C542.202 325.248 543.225 326.571 543.755 328.141C544.531 330.41 545.099 332.773 545.857 335.061C546.065 335.723 546.595 336.082 547.258 336.139C549.53 336.309 552.313 336.082 554.509 336.687C557.974 337.651 557.065 340.922 557.16 343.929C557.235 346.405 557.974 348.882 555.342 349.714Z" fill="#3A3A3A"></path><path d="M502.973 318.347C504.753 317.779 506.514 317.496 508.388 317.515C510.263 317.534 510.263 314.622 508.388 314.603C506.287 314.584 504.204 314.887 502.197 315.529C500.418 316.116 501.175 318.933 502.973 318.347Z" fill="#3A3A3A"></path><path d="M519.199 319.198C520.733 319.595 522.134 320.294 523.326 321.334C524.746 322.544 526.81 320.502 525.39 319.273C523.8 317.912 522.001 316.929 519.975 316.399C518.158 315.908 517.381 318.706 519.199 319.198Z" fill="#3A3A3A"></path><path d="M536.466 332.584C535.822 330.769 534.951 329.086 533.777 327.555C533.304 326.931 532.528 326.59 531.789 327.025C531.183 327.384 530.786 328.387 531.259 329.01C532.282 330.334 533.096 331.771 533.645 333.359C534.288 335.118 537.109 334.361 536.466 332.584Z" fill="#3A3A3A"></path><path d="M535.33 344.553C535.178 346.254 534.875 347.937 534.459 349.601C534.004 351.416 536.806 352.191 537.28 350.376C537.753 348.466 538.075 346.519 538.264 344.553C538.416 342.681 535.5 342.7 535.33 344.553Z" fill="#3A3A3A"></path><path d="M531.411 358.752C530.786 358.393 529.744 358.563 529.423 359.282C528.741 360.756 527.7 361.929 526.28 362.723C524.633 363.63 526.109 366.145 527.757 365.237C529.574 364.216 531.07 362.647 531.96 360.756C532.263 360.038 532.13 359.187 531.411 358.752Z" fill="#3A3A3A"></path><path d="M516.245 367.752C514.579 368.055 512.913 368.282 511.209 368.433C509.354 368.603 509.335 371.515 511.209 371.344C513.159 371.174 515.091 370.91 517.003 370.569C518.877 370.229 518.082 367.412 516.245 367.752Z" fill="#3A3A3A"></path><path d="M500.55 366.769C498.808 366.296 497.274 365.521 495.817 364.443C495.173 363.971 494.188 364.349 493.829 364.973C493.393 365.71 493.715 366.504 494.359 366.958C495.987 368.168 497.823 369.038 499.792 369.567C501.591 370.078 502.348 367.26 500.55 366.769Z" fill="#3A3A3A"></path><path d="M485.877 352.286C485.385 350.49 482.564 351.246 483.056 353.061C483.624 355.141 484.627 356.994 485.972 358.695C486.464 359.319 487.524 359.206 488.035 358.695C488.66 358.09 488.528 357.239 488.035 356.634C487.013 355.349 486.312 353.874 485.877 352.286Z" fill="#3A3A3A"></path><path d="M484.551 341.66C484.532 339.882 484.646 338.124 484.949 336.365C485.252 334.531 482.45 333.737 482.128 335.59C481.787 337.595 481.617 339.618 481.636 341.66C481.655 343.531 484.57 343.531 484.551 341.66Z" fill="#3A3A3A"></path><path d="M492.125 321.032C490.364 322.109 488.774 323.471 487.486 325.078C486.994 325.683 486.88 326.534 487.486 327.139C487.997 327.649 489.058 327.763 489.55 327.139C490.705 325.702 492.03 324.511 493.601 323.546C495.192 322.563 493.734 320.048 492.125 321.032Z" fill="#3A3A3A"></path><path d="M509.506 360.964C498.695 360.964 489.891 352.172 489.891 341.376C489.891 330.58 498.695 321.788 509.506 321.788C520.316 321.788 529.12 330.58 529.12 341.376C529.12 352.191 520.316 360.964 509.506 360.964ZM509.506 323.414C499.585 323.414 491.519 331.468 491.519 341.376C491.519 351.284 499.585 359.338 509.506 359.338C519.427 359.338 527.511 351.284 527.511 341.376C527.492 331.487 519.427 323.414 509.506 323.414Z" fill="#3A3A3A"></path><path d="M509.506 361.418C498.449 361.418 489.456 352.437 489.456 341.395C489.456 330.353 498.449 321.372 509.506 321.372C520.562 321.372 529.575 330.353 529.575 341.395C529.556 352.437 520.562 361.418 509.506 361.418ZM509.506 322.242C498.941 322.242 490.345 330.826 490.345 341.376C490.345 351.926 498.941 360.51 509.506 360.51C520.07 360.51 528.666 351.926 528.666 341.376C528.666 330.845 520.07 322.242 509.506 322.242ZM509.506 359.811C499.339 359.811 491.065 351.548 491.065 341.395C491.065 331.242 499.339 322.979 509.506 322.979C519.673 322.979 527.946 331.242 527.946 341.395C527.946 351.548 519.673 359.811 509.506 359.811ZM509.506 323.868C499.831 323.868 491.955 331.733 491.955 341.395C491.955 351.057 499.831 358.922 509.506 358.922C519.18 358.922 527.057 351.057 527.057 341.395C527.057 331.733 519.18 323.868 509.506 323.868Z" fill="#3A3A3A"></path><path d="M509.505 360.964C503.655 360.964 499.073 352.361 499.073 341.376C499.073 330.391 503.655 321.788 509.505 321.788C515.356 321.788 519.937 330.391 519.937 341.376C519.937 352.361 515.356 360.964 509.505 360.964ZM509.505 323.414C504.734 323.414 500.683 331.639 500.683 341.376C500.683 351.113 504.715 359.338 509.505 359.338C514.276 359.338 518.328 351.113 518.328 341.376C518.309 331.658 514.276 323.414 509.505 323.414Z" fill="#3A3A3A"></path><path d="M509.505 361.418C503.409 361.418 498.619 352.626 498.619 341.395C498.619 330.164 503.39 321.372 509.505 321.372C515.602 321.372 520.392 330.164 520.392 341.395C520.392 352.626 515.602 361.418 509.505 361.418ZM509.505 322.242C503.901 322.242 499.509 330.655 499.509 341.376C499.509 352.097 503.901 360.51 509.505 360.51C515.109 360.51 519.483 352.097 519.483 341.376C519.483 330.655 515.109 322.242 509.505 322.242ZM509.505 359.811C504.488 359.811 500.247 351.378 500.247 341.395C500.247 331.412 504.488 322.979 509.505 322.979C514.522 322.979 518.763 331.412 518.763 341.395C518.763 351.378 514.522 359.811 509.505 359.811ZM509.505 323.868C505.037 323.868 501.137 332.055 501.137 341.395C501.137 350.735 505.056 358.922 509.505 358.922C513.954 358.922 517.874 350.735 517.874 341.395C517.874 332.055 513.954 323.868 509.505 323.868Z" fill="#3A3A3A"></path><path d="M528.306 342.189H490.705C490.251 342.189 489.891 341.83 489.891 341.376C489.891 340.922 490.251 340.563 490.705 340.563H528.306C528.761 340.563 529.12 340.922 529.12 341.376C529.12 341.83 528.761 342.189 528.306 342.189Z" fill="#3A3A3A"></path><path d="M528.306 342.643H490.705C490.005 342.643 489.456 342.076 489.456 341.395C489.456 340.714 490.024 340.147 490.705 340.147H528.306C529.007 340.147 529.556 340.714 529.556 341.395C529.556 342.076 529.007 342.643 528.306 342.643ZM490.705 341.036C490.497 341.036 490.345 341.206 490.345 341.395C490.345 341.584 490.516 341.754 490.705 341.754H528.306C528.514 341.754 528.666 341.584 528.666 341.395C528.666 341.206 528.495 341.036 528.306 341.036H490.705Z" fill="#3A3A3A"></path><path d="M509.506 360.964C509.051 360.964 508.691 360.605 508.691 360.151V322.601C508.691 322.147 509.051 321.788 509.506 321.788C509.96 321.788 510.32 322.147 510.32 322.601V360.151C510.32 360.605 509.96 360.964 509.506 360.964Z" fill="#3A3A3A"></path><path d="M509.505 361.418C508.805 361.418 508.256 360.851 508.256 360.17V322.62C508.256 321.92 508.824 321.372 509.505 321.372C510.206 321.372 510.755 321.939 510.755 322.62V360.17C510.755 360.851 510.187 361.418 509.505 361.418ZM509.505 322.242C509.297 322.242 509.146 322.412 509.146 322.601V360.151C509.146 360.359 509.316 360.51 509.505 360.51C509.714 360.51 509.865 360.34 509.865 360.151V322.601C509.865 322.412 509.714 322.242 509.505 322.242Z" fill="#3A3A3A"></path><path d="M509.543 333.756C504.374 333.756 499.168 332.887 493.999 331.166C493.583 331.015 493.355 330.561 493.488 330.145C493.62 329.729 494.094 329.483 494.51 329.634C504.526 332.981 514.598 332.981 524.481 329.634C524.898 329.502 525.371 329.71 525.504 330.145C525.655 330.561 525.428 331.034 524.992 331.166C519.899 332.887 514.731 333.756 509.543 333.756Z" fill="#3A3A3A"></path><path d="M509.543 334.191C504.337 334.191 499.054 333.303 493.867 331.563C493.545 331.45 493.299 331.242 493.147 330.939C492.996 330.637 492.977 330.296 493.091 329.994C493.204 329.672 493.412 329.426 493.715 329.275C494.018 329.124 494.359 329.105 494.681 329.218C504.602 332.527 514.58 332.527 524.368 329.218C525.031 329.01 525.731 329.351 525.958 329.994C526.072 330.315 526.034 330.655 525.901 330.958C525.75 331.26 525.504 331.487 525.182 331.582C520.013 333.321 514.769 334.191 509.543 334.191ZM494.264 330.031C494.208 330.031 494.151 330.05 494.113 330.069C494.018 330.107 493.962 330.183 493.924 330.277C493.886 330.372 493.905 330.466 493.943 330.561C493.98 330.655 494.056 330.712 494.151 330.75C504.356 334.172 514.769 334.172 524.86 330.75C524.955 330.712 525.031 330.655 525.068 330.561C525.106 330.466 525.125 330.372 525.087 330.277C525.031 330.088 524.822 329.994 524.633 330.05C514.674 333.435 504.488 333.435 494.378 330.05C494.34 330.031 494.302 330.031 494.264 330.031Z" fill="#3A3A3A"></path><path d="M524.747 352.815C524.652 352.815 524.576 352.796 524.482 352.777C514.618 349.431 504.526 349.431 494.511 352.777C494.094 352.929 493.621 352.683 493.488 352.267C493.337 351.851 493.583 351.378 494 351.246C504.356 347.786 514.788 347.786 524.993 351.246C525.409 351.397 525.637 351.851 525.504 352.267C525.39 352.607 525.088 352.815 524.747 352.815Z" fill="#3A3A3A"></path><path d="M494.264 353.25C494.075 353.25 493.886 353.212 493.715 353.118C493.412 352.966 493.185 352.721 493.091 352.399C492.863 351.737 493.223 351.038 493.886 350.811C504.337 347.313 514.864 347.313 525.163 350.811C525.485 350.924 525.731 351.151 525.883 351.435C526.034 351.737 526.053 352.078 525.939 352.399C525.731 353.042 524.993 353.401 524.349 353.174C514.58 349.847 504.583 349.847 494.662 353.174C494.53 353.231 494.397 353.25 494.264 353.25ZM509.562 349.09C504.432 349.09 499.282 349.941 494.151 351.662C493.962 351.718 493.867 351.926 493.924 352.116C493.962 352.21 494.018 352.286 494.113 352.323C494.208 352.361 494.302 352.38 494.397 352.342C504.507 348.958 514.693 348.958 524.652 352.342C524.822 352.399 525.05 352.305 525.106 352.116C525.144 352.021 525.125 351.926 525.087 351.832C525.049 351.737 524.974 351.681 524.879 351.643C519.805 349.941 514.693 349.09 509.562 349.09Z" fill="#3A3A3A"></path><path d="M115.453 75.2332C114.223 74.8172 112.973 74.7227 111.799 74.855C106.536 65.4013 100.799 56.25 94.5703 47.4013C96.3878 45.6996 97.4481 43.2227 97.1641 40.0462C97.1452 39.9328 97.1262 39.8193 97.1073 39.7248C97.1073 39.6302 97.1073 39.5357 97.0884 39.4412C96.3121 34.9412 93.2828 30.9895 88.3792 31.0273C84.4411 31.0651 80.5409 33.5231 78.7423 37.021C76.9247 40.5945 77.7578 45.1513 80.7303 47.7038C72.7595 56.7605 65.0916 66.0819 57.7456 75.6492C55.095 73.4937 51.5356 72.5672 48.2791 74.0987C42.7128 66.4223 37.1465 58.7647 31.5992 51.0882C32.5837 49.9916 33.341 48.6681 33.7765 47.1555C33.8333 47.0042 33.8901 46.8151 33.9279 46.626C33.9658 46.437 34.0037 46.2479 34.0037 46.0777C34.5527 41.6912 33.3032 37.2479 28.9486 35.3004C25.1052 33.5798 20.3719 34.6008 17.5888 37.7584C13.84 42.0126 14.6352 48.7248 18.933 52.2605C21.7162 54.5483 25.0105 54.8319 27.8315 53.7353C33.4736 61.5063 39.1156 69.2962 44.7576 77.0672C42.4288 80.4517 42.4478 85.3298 44.9091 88.8088C44.9659 88.8845 45.0416 88.9601 45.0984 89.0357C45.1552 89.1113 45.1931 89.2059 45.2688 89.2815C52.3497 97.6387 65.5082 88.8088 60.6992 79.2983C60.756 79.2227 60.8317 79.166 60.8885 79.0903C68.5942 68.9937 76.6786 59.1996 85.1038 49.708C86.9403 50.0861 88.7768 50.0483 90.4618 49.6134C96.5961 58.3298 102.276 67.3298 107.464 76.6324C105.816 77.8802 104.548 79.6954 103.999 81.813C102.655 86.937 105.381 91.7206 110.379 93.3655C115.359 95.0105 120.035 92.3067 121.644 87.5609C121.72 87.3908 121.796 87.2017 121.834 86.9937C121.891 86.7857 121.91 86.5966 121.928 86.4076C122.534 81.7752 120.092 76.7647 115.453 75.2332ZM20.3719 46.9286C19.1413 44.584 19.8039 41.4076 22.057 39.9328C26.279 37.1912 30.1224 40.9916 29.4408 45.3971C28.3238 49.9916 22.7953 51.5231 20.3719 46.9286ZM54.7542 87.4664C52.5201 88.7332 50.3618 88.0147 48.7525 86.2563C47.1053 83.7038 47.0674 79.5819 50.3428 78.2017C52.9367 77.105 55.663 79.355 56.6854 81.605C57.6888 83.855 56.8937 86.2563 54.7542 87.4664ZM108.467 83.042C109.111 80.5462 111.591 78.6555 114.223 79.6954C116.495 80.6029 117.801 83.4391 117.347 85.7647C115.643 91.8718 106.99 88.8088 108.467 83.042Z" fill="#3A3A3A"></path><path d="M78.1931 45.3214C75.9969 41.5777 76.9246 37.4748 79.7267 34.3739C82.188 31.6513 86.1639 29.5903 89.9126 29.9685C94.7784 30.4601 96.5581 34.979 97.3722 39.1954C97.6751 43.771 95.9522 48.4601 90.8971 49.4244C86.7697 50.1807 80.484 49.1975 78.1931 45.3214Z" fill="#1E5B95"></path><path d="M54.4513 71.7731C59.0141 72.605 61.6837 76.2353 62.2516 80.6597C62.7439 84.5357 61.6269 89.2059 58.7112 91.9664C54.9246 95.5588 50.0209 93.8382 46.0261 91.5693C42.1069 88.6197 39.5131 83.9685 42.2584 79.2038C44.5304 75.2899 49.6991 70.9034 54.4513 71.7731Z" fill="#FF9A31"></path><path d="M150.366 32.7668L173.748 43.6197C174.354 43.9034 174.997 44.0357 175.66 44.0357C176.531 44.0357 177.364 43.7899 178.102 43.3172C179.409 42.4853 180.204 41.0483 180.204 39.4979V39.3845C180.204 37.626 179.163 36.0189 177.572 35.2626L162.937 28.4748L177.572 21.687C179.163 20.9496 180.204 19.3235 180.204 17.5651V17.4706C180.204 15.9202 179.428 14.4832 178.102 13.6513C177.383 13.1786 176.531 12.9328 175.66 12.9328C174.997 12.9328 174.335 13.084 173.748 13.3487L150.366 24.2017C148.775 24.9391 147.734 26.5651 147.734 28.3235V28.645C147.734 30.4034 148.756 32.0294 150.366 32.7668Z" fill="#5C97CF"></path><path d="M180.412 54.8887C181.264 56.0609 182.646 56.7416 184.085 56.7416H184.199C186.186 56.7416 187.928 55.4748 188.534 53.584L203.946 5.89916C204.381 4.51891 204.135 3.0063 203.283 1.83403C202.431 0.69958 201.068 0 199.61 0H199.496C197.508 0 195.767 1.26681 195.161 3.15756L179.749 50.8424C179.314 52.2038 179.56 53.7353 180.412 54.8887Z" fill="#5C97CF"></path><path d="M203.492 17.584C203.492 19.3424 204.514 20.9496 206.123 21.7059L220.759 28.4937L206.123 35.2815C204.533 36.0189 203.492 37.645 203.492 39.4034V39.5168C203.492 41.0672 204.268 42.5042 205.593 43.3361C206.332 43.8088 207.165 44.0546 208.036 44.0546C208.698 44.0546 209.342 43.9223 209.948 43.6387L233.33 32.7857C234.92 32.0483 235.962 30.4223 235.962 28.6639V28.3424C235.962 26.584 234.939 24.9769 233.33 24.2206L209.948 13.3677C209.361 13.103 208.698 12.9517 208.036 12.9517C207.165 12.9517 206.313 13.1975 205.593 13.6513C204.268 14.4832 203.492 15.9202 203.492 17.4706V17.584Z" fill="#5C97CF"></path><path d="M359.159 342.851L370.405 348.069C370.689 348.202 371.011 348.277 371.333 348.277C371.749 348.277 372.147 348.164 372.506 347.937C373.131 347.54 373.51 346.84 373.51 346.103V346.046C373.51 345.195 373.018 344.42 372.241 344.061L365.198 340.79L372.241 337.519C373.018 337.16 373.51 336.384 373.51 335.534V335.477C373.51 334.721 373.131 334.04 372.506 333.643C372.166 333.416 371.749 333.302 371.333 333.302C371.011 333.302 370.689 333.378 370.405 333.51L359.159 338.729C358.382 339.088 357.89 339.863 357.89 340.714V340.866C357.89 341.716 358.382 342.492 359.159 342.851Z" fill="#3A3A3A"></path><path d="M373.605 353.496C374.021 354.063 374.684 354.384 375.365 354.384H375.422C376.369 354.384 377.221 353.779 377.505 352.872L384.908 329.937C385.116 329.275 385.002 328.538 384.586 327.989C384.169 327.422 383.507 327.101 382.825 327.101H382.768C381.822 327.101 380.97 327.706 380.686 328.613L373.283 351.548C373.075 352.21 373.207 352.929 373.605 353.496Z" fill="#3A3A3A"></path><path d="M384.699 335.553C384.699 336.403 385.191 337.179 385.968 337.538L393.011 340.809L385.968 344.08C385.191 344.439 384.699 345.214 384.699 346.065V346.122C384.699 346.878 385.078 347.559 385.703 347.956C386.062 348.183 386.46 348.296 386.877 348.296C387.198 348.296 387.501 348.221 387.804 348.088L399.05 342.87C399.827 342.51 400.319 341.735 400.319 340.884V340.733C400.319 339.882 399.827 339.107 399.05 338.748L387.804 333.529C387.52 333.397 387.198 333.321 386.877 333.321C386.46 333.321 386.043 333.435 385.703 333.662C385.078 334.059 384.699 334.758 384.699 335.496V335.553Z" fill="#3A3A3A"></path><path fill-rule="evenodd" clip-rule="evenodd" d="M429.703 85.5L158.564 85.1218C153.679 85.0462 149.59 88.6197 149.23 93.2899C146.201 132.088 150.328 213.013 150.953 245.59C151.01 248.767 155.856 253.531 159.359 254.704C163.467 256.084 421.145 255.044 427.45 253.872C438.753 251.754 436.841 239.389 437.787 231.466C443.145 186.674 439.851 137.968 438.791 94.1597C438.639 89.395 434.644 85.5945 429.703 85.5Z" fill="#1E5B95"></path><path d="M462.533 285.712H126.302C118.824 285.712 112.689 279.605 112.689 272.118C112.689 264.649 118.805 258.523 126.302 258.523H462.533C470.012 258.523 476.146 264.63 476.146 272.118C476.146 279.586 470.012 285.712 462.533 285.712Z" fill="white"></path><path d="M463.309 289.21H125.545C116.533 289.21 109.187 281.893 109.187 272.874V271.342C109.187 262.342 116.533 255.006 125.545 255.006H463.309C472.321 255.006 479.667 262.324 479.667 271.342V272.874C479.667 281.893 472.321 289.21 463.309 289.21ZM125.545 262.04C120.395 262.04 116.23 266.218 116.23 271.342V272.874C116.23 278.017 120.414 282.176 125.545 282.176H463.309C468.459 282.176 472.624 277.998 472.624 272.874V271.342C472.624 266.2 468.44 262.04 463.309 262.04H125.545Z" fill="#3A3A3A" stroke="white" stroke-miterlimit="10"></path><path d="M412.455 243.624H171.874C169.923 243.624 168.352 242.055 168.352 240.107C168.352 238.16 169.923 236.59 171.874 236.59H412.455C414.405 236.59 415.977 238.16 415.977 240.107C415.977 242.055 414.405 243.624 412.455 243.624Z" fill="#3A3A3A"></path><path d="M207.619 240.107C207.619 245.609 203.151 250.052 197.66 250.052C192.151 250.052 187.702 245.59 187.702 240.107C187.702 234.605 192.17 230.162 197.66 230.162C203.151 230.162 207.619 234.605 207.619 240.107Z" fill="#3A3A3A"></path><path d="M434.304 258.013H150.498C140.559 258.013 132.417 249.882 132.417 239.956V88.3172C132.417 78.3908 140.559 70.2605 150.498 70.2605H434.304C444.244 70.2605 452.385 78.3908 452.385 88.3172V239.956C452.385 249.901 444.263 258.013 434.304 258.013Z" stroke="#3A3A3A" stroke-width="3" stroke-miterlimit="10"></path><path d="M374.078 227.553C373.264 227.553 372.45 227.534 371.654 227.496C366.334 227.174 365.766 225.34 365.312 222.372C365.274 222.107 365.217 221.824 365.179 221.521C364.725 218.95 364.479 204.221 367.357 202.443C370.84 200.307 377.997 200.628 380.894 200.855C383.658 201.082 388.581 200.155 389.887 203.805C390.493 205.525 390.512 208.191 390.512 210.328C390.512 210.914 390.512 211.462 390.531 211.935C390.606 214.431 390.606 216.964 390.55 219.479C390.531 220.027 390.55 220.557 390.568 221.086C390.644 223.506 390.701 226.002 387.161 226.834C384.926 227.345 381.556 227.401 379.322 227.439C378.641 227.458 377.94 227.477 377.259 227.496C376.198 227.534 375.138 227.553 374.078 227.553ZM376.747 202.198C373.794 202.198 370.14 202.481 368.114 203.729C366.543 204.693 365.918 217.229 366.637 221.275C366.694 221.578 366.732 221.861 366.789 222.145C367.186 224.679 367.357 225.737 371.749 226.002C373.529 226.116 375.384 226.059 377.202 226.002C377.902 225.983 378.603 225.964 379.284 225.945C381.443 225.908 384.718 225.87 386.801 225.378C389.054 224.849 389.13 223.695 389.054 221.124C389.035 220.576 389.016 220.027 389.035 219.441C389.111 216.964 389.111 214.45 389.016 211.992C388.997 211.5 388.997 210.952 388.997 210.347C388.997 208.324 388.978 205.79 388.448 204.315C387.823 202.538 385.703 202.405 382.768 202.405C382.049 202.405 381.367 202.405 380.742 202.349C379.966 202.292 378.47 202.198 376.747 202.198Z" fill="#3A3A3A"></path><path d="M385.703 207.832C384.945 205.714 381.783 205.639 379.852 205.469C377.391 205.261 373.377 205.204 371.219 206.66C370.859 206.887 370.613 207.227 370.405 207.586C370.14 207.832 369.95 208.191 369.912 208.664C369.912 208.74 369.894 208.815 369.894 208.891C369.685 209.779 369.647 210.782 369.628 211.708C369.363 214.223 369.098 216.832 369.515 219.176C369.912 221.37 371.332 222.637 373.529 222.882C375.252 223.071 377.05 222.882 378.792 222.845C380.326 222.826 382.162 223.071 383.658 222.712C386.157 222.145 386.006 220.008 386.062 217.834C386.119 216.095 386.1 214.374 386.062 212.634C386.006 211.16 386.195 209.269 385.703 207.832Z" fill="#5C97CF" stroke="#00C5B7" stroke-width="0.25" stroke-miterlimit="10" stroke-linecap="round" stroke-linejoin="round"></path><path d="M369.553 197.981C369.496 199.324 369.591 200.666 369.799 201.99C369.95 202.935 371.389 202.538 371.238 201.592C371.049 200.401 370.992 199.191 371.049 197.981C371.086 197.036 369.591 197.036 369.553 197.981Z" fill="#3A3A3A"></path><path d="M374.362 197.905C374.381 198.794 374.4 199.683 374.419 200.553C374.438 201.517 375.933 201.517 375.915 200.553C375.896 199.664 375.877 198.775 375.858 197.905C375.839 196.941 374.343 196.941 374.362 197.905Z" fill="#3A3A3A"></path><path d="M378.508 197.49C378.527 198.813 378.565 200.137 378.584 201.479C378.603 202.443 380.098 202.443 380.079 201.479C380.061 200.155 380.023 198.832 380.004 197.49C379.985 196.525 378.489 196.525 378.508 197.49Z" fill="#3A3A3A"></path><path d="M382.995 197.735C383.014 199.059 383.052 200.382 383.071 201.725C383.09 202.689 384.586 202.689 384.567 201.725C384.548 200.401 384.51 199.078 384.491 197.735C384.472 196.79 382.976 196.79 382.995 197.735Z" fill="#3A3A3A"></path><path d="M371.541 230.786C371.446 229.5 371.465 228.233 371.616 226.966C371.73 226.021 370.234 226.021 370.121 226.966C369.969 228.233 369.931 229.5 370.045 230.786C370.121 231.731 371.617 231.75 371.541 230.786Z" fill="#3A3A3A"></path><path d="M376.425 230.162C376.406 229.273 376.387 228.384 376.368 227.515C376.35 226.55 374.854 226.55 374.873 227.515C374.892 228.403 374.911 229.292 374.93 230.162C374.948 231.126 376.444 231.126 376.425 230.162Z" fill="#3A3A3A"></path><path d="M380.591 230.71C380.572 229.387 380.534 228.063 380.515 226.721C380.496 225.756 379 225.756 379.019 226.721C379.038 228.044 379.076 229.368 379.095 230.71C379.114 231.674 380.61 231.674 380.591 230.71Z" fill="#3A3A3A"></path><path d="M385.097 230.672C385.078 229.349 385.04 228.025 385.021 226.683C385.002 225.719 383.507 225.719 383.526 226.683C383.545 228.006 383.582 229.33 383.601 230.672C383.601 231.618 385.116 231.637 385.097 230.672Z" fill="#3A3A3A"></path><path d="M362.226 222.939C363.57 222.996 364.914 222.901 366.239 222.693C367.186 222.542 366.788 221.105 365.842 221.256C364.649 221.445 363.437 221.502 362.226 221.445C361.26 221.408 361.26 222.901 362.226 222.939Z" fill="#3A3A3A"></path><path d="M362.131 218.137C363.021 218.118 363.911 218.099 364.782 218.08C365.747 218.061 365.747 216.567 364.782 216.586C363.892 216.605 363.002 216.624 362.131 216.643C361.185 216.662 361.166 218.156 362.131 218.137Z" fill="#3A3A3A"></path><path d="M361.733 213.996C363.059 213.977 364.384 213.939 365.728 213.92C366.694 213.901 366.694 212.408 365.728 212.427C364.403 212.445 363.078 212.483 361.733 212.502C360.768 212.521 360.768 214.015 361.733 213.996Z" fill="#3A3A3A"></path><path d="M361.981 209.515C363.306 209.496 364.631 209.458 365.975 209.439C366.941 209.42 366.941 207.927 365.975 207.945C364.65 207.964 363.325 208.002 361.981 208.021C361.015 208.04 361.015 209.534 361.981 209.515Z" fill="#3A3A3A"></path><path d="M393.749 220.878C392.462 220.973 391.193 220.954 389.925 220.803C388.978 220.689 388.978 222.183 389.925 222.296C391.193 222.448 392.462 222.485 393.749 222.372C394.696 222.296 394.715 220.803 393.749 220.878Z" fill="#3A3A3A"></path><path d="M393.674 216.076C392.784 216.095 391.894 216.113 391.023 216.132C390.057 216.151 390.057 217.645 391.023 217.626C391.913 217.607 392.803 217.588 393.674 217.569C394.62 217.55 394.62 216.057 393.674 216.076Z" fill="#3A3A3A"></path><path d="M393.92 211.935C392.594 211.954 391.269 211.992 389.925 212.011C388.959 212.029 388.959 213.523 389.925 213.504C391.25 213.485 392.575 213.447 393.92 213.429C394.885 213.41 394.885 211.916 393.92 211.935Z" fill="#3A3A3A"></path><path d="M393.844 207.435C392.519 207.454 391.193 207.492 389.849 207.511C388.884 207.529 388.884 209.023 389.849 209.004C391.174 208.985 392.5 208.947 393.844 208.929C394.81 208.929 394.81 207.435 393.844 207.435Z" fill="#3A3A3A"></path><path d="M410.051 227.553C409.236 227.553 408.422 227.534 407.627 227.496C402.307 227.174 401.739 225.34 401.285 222.372C401.247 222.107 401.19 221.824 401.152 221.521C400.698 218.95 400.451 204.221 403.329 202.443C406.813 200.307 413.97 200.628 416.866 200.855C419.631 201.082 424.553 200.155 425.86 203.805C426.465 205.525 426.484 208.191 426.484 210.328C426.484 210.914 426.484 211.462 426.503 211.935C426.579 214.431 426.579 216.964 426.522 219.479C426.503 220.027 426.522 220.557 426.541 221.086C426.617 223.506 426.674 226.002 423.133 226.834C420.899 227.345 417.529 227.401 415.295 227.439C414.613 227.458 413.913 227.477 413.231 227.496C412.171 227.534 411.111 227.553 410.051 227.553ZM412.72 202.198C409.767 202.198 406.112 202.481 404.087 203.729C402.515 204.693 401.89 217.229 402.61 221.275C402.667 221.578 402.705 221.861 402.761 222.145C403.159 224.679 403.329 225.737 407.722 226.002C409.501 226.116 411.357 226.059 413.174 226.002C413.875 225.983 414.576 225.964 415.257 225.945C417.415 225.908 420.691 225.87 422.773 225.378C425.027 224.849 425.102 223.695 425.027 221.124C425.008 220.576 424.989 220.027 425.008 219.441C425.083 216.964 425.083 214.45 424.989 211.992C424.97 211.5 424.97 210.952 424.97 210.347C424.97 208.324 424.951 205.79 424.421 204.315C423.796 202.538 421.675 202.405 418.741 202.405C418.021 202.405 417.34 202.405 416.715 202.349C415.939 202.292 414.443 202.198 412.72 202.198Z" fill="#3A3A3A"></path><path d="M421.675 207.832C420.918 205.714 417.756 205.639 415.825 205.469C413.364 205.261 409.35 205.204 407.191 206.66C406.832 206.887 406.586 207.227 406.377 207.586C406.112 207.832 405.923 208.191 405.885 208.664C405.885 208.74 405.866 208.815 405.866 208.891C405.658 209.779 405.62 210.782 405.601 211.708C405.336 214.223 405.071 216.832 405.488 219.176C405.885 221.37 407.305 222.637 409.501 222.882C411.224 223.071 413.023 222.882 414.765 222.845C416.298 222.826 418.135 223.071 419.63 222.712C422.13 222.145 421.978 220.008 422.035 217.834C422.092 216.095 422.073 214.374 422.035 212.634C421.978 211.16 422.167 209.269 421.675 207.832Z" fill="#5C97CF" stroke="#00C5B7" stroke-width="0.25" stroke-miterlimit="10" stroke-linecap="round" stroke-linejoin="round"></path><path d="M405.526 197.981C405.469 199.324 405.563 200.666 405.772 201.99C405.923 202.935 407.362 202.538 407.211 201.592C407.021 200.401 406.964 199.191 407.021 197.981C407.059 197.036 405.563 197.036 405.526 197.981Z" fill="#3A3A3A"></path><path d="M410.335 197.905C410.354 198.794 410.373 199.683 410.391 200.553C410.41 201.517 411.906 201.517 411.887 200.553C411.868 199.664 411.849 198.775 411.83 197.905C411.811 196.941 410.316 196.941 410.335 197.905Z" fill="#3A3A3A"></path><path d="M414.481 197.49C414.5 198.813 414.537 200.137 414.556 201.479C414.575 202.443 416.071 202.443 416.052 201.479C416.033 200.155 415.995 198.832 415.976 197.49C415.957 196.525 414.462 196.525 414.481 197.49Z" fill="#3A3A3A"></path><path d="M418.968 197.735C418.987 199.059 419.025 200.382 419.044 201.725C419.063 202.689 420.558 202.689 420.539 201.725C420.52 200.401 420.483 199.078 420.464 197.735C420.445 196.79 418.949 196.79 418.968 197.735Z" fill="#3A3A3A"></path><path d="M407.513 230.786C407.419 229.5 407.438 228.233 407.589 226.966C407.703 226.021 406.207 226.021 406.093 226.966C405.942 228.233 405.904 229.5 406.018 230.786C406.093 231.731 407.589 231.75 407.513 230.786Z" fill="#3A3A3A"></path><path d="M412.398 230.162C412.379 229.273 412.36 228.384 412.341 227.515C412.322 226.55 410.826 226.55 410.845 227.515C410.864 228.403 410.883 229.292 410.902 230.162C410.921 231.126 412.417 231.126 412.398 230.162Z" fill="#3A3A3A"></path><path d="M416.563 230.71C416.544 229.387 416.507 228.063 416.488 226.721C416.469 225.756 414.973 225.756 414.992 226.721C415.011 228.044 415.049 229.368 415.068 230.71C415.087 231.674 416.582 231.674 416.563 230.71Z" fill="#3A3A3A"></path><path d="M421.07 230.672C421.051 229.349 421.013 228.025 420.994 226.683C420.975 225.719 419.479 225.719 419.498 226.683C419.517 228.006 419.555 229.33 419.574 230.672C419.574 231.618 421.089 231.637 421.07 230.672Z" fill="#3A3A3A"></path><path d="M398.198 222.939C399.543 222.996 400.887 222.901 402.212 222.693C403.159 222.542 402.761 221.105 401.814 221.256C400.622 221.445 399.41 221.502 398.198 221.445C397.233 221.408 397.233 222.901 398.198 222.939Z" fill="#3A3A3A"></path><path d="M398.104 218.137C398.994 218.118 399.884 218.099 400.754 218.08C401.72 218.061 401.72 216.567 400.754 216.586C399.865 216.605 398.975 216.624 398.104 216.643C397.157 216.662 397.138 218.156 398.104 218.137Z" fill="#3A3A3A"></path><path d="M397.706 213.996C399.031 213.977 400.357 213.939 401.701 213.92C402.667 213.901 402.667 212.408 401.701 212.427C400.376 212.445 399.05 212.483 397.706 212.502C396.741 212.521 396.741 214.015 397.706 213.996Z" fill="#3A3A3A"></path><path d="M397.953 209.515C399.279 209.496 400.604 209.458 401.948 209.439C402.914 209.42 402.914 207.927 401.948 207.945C400.623 207.964 399.297 208.002 397.953 208.021C396.988 208.04 396.988 209.534 397.953 209.515Z" fill="#3A3A3A"></path><path d="M429.722 220.878C428.435 220.973 427.166 220.954 425.897 220.803C424.951 220.689 424.951 222.183 425.897 222.296C427.166 222.448 428.435 222.485 429.722 222.372C430.669 222.296 430.688 220.803 429.722 220.878Z" fill="#3A3A3A"></path><path d="M429.646 216.076C428.756 216.095 427.867 216.113 426.996 216.132C426.03 216.151 426.03 217.645 426.996 217.626C427.886 217.607 428.775 217.588 429.646 217.569C430.593 217.55 430.593 216.057 429.646 216.076Z" fill="#3A3A3A"></path><path d="M429.892 211.935C428.567 211.954 427.242 211.992 425.898 212.011C424.932 212.029 424.932 213.523 425.898 213.504C427.223 213.485 428.548 213.447 429.892 213.429C430.858 213.41 430.858 211.916 429.892 211.935Z" fill="#3A3A3A"></path><path d="M429.817 207.435C428.491 207.454 427.166 207.492 425.822 207.511C424.856 207.529 424.856 209.023 425.822 209.004C427.147 208.985 428.472 208.947 429.817 208.929C430.782 208.929 430.782 207.435 429.817 207.435Z" fill="#3A3A3A"></path><path d="M334.394 191.836C335.795 192.101 337.159 191.193 337.424 189.775L339.601 178.374C339.733 177.712 339.582 177.013 339.203 176.445C338.825 175.878 338.219 175.481 337.556 175.368L333.145 174.536C332.936 172.134 332.444 169.752 331.668 167.464L335.379 164.95C336.553 164.155 336.875 162.548 336.06 161.357L329.529 151.752C329.15 151.185 328.544 150.788 327.881 150.674C327.2 150.542 326.518 150.693 325.95 151.071L322.239 153.586C320.384 152.017 318.358 150.693 316.2 149.616L317.033 145.21C317.298 143.811 316.389 142.468 314.969 142.185L303.552 140.01C302.871 139.878 302.189 140.029 301.621 140.408C301.053 140.786 300.656 141.391 300.542 142.052L299.709 146.458C297.305 146.666 294.919 147.158 292.628 147.933L290.11 144.227C289.731 143.66 289.126 143.263 288.463 143.149C287.781 143.017 287.1 143.168 286.532 143.546L276.914 150.069C276.346 150.447 275.948 151.052 275.835 151.714C275.702 152.395 275.854 153.076 276.232 153.643L278.75 157.349C277.179 159.202 275.854 161.225 274.774 163.38L270.363 162.548C269.7 162.416 269 162.567 268.432 162.945C267.864 163.323 267.466 163.929 267.353 164.59L265.175 175.992C264.91 177.391 265.819 178.733 267.22 179.017L271.631 179.849C271.84 182.25 272.332 184.632 273.108 186.92L269.397 189.435C268.829 189.813 268.432 190.418 268.318 191.08C268.186 191.76 268.337 192.441 268.716 193.008L275.248 202.613C275.626 203.181 276.232 203.578 276.895 203.691C277.576 203.824 278.258 203.672 278.826 203.294L282.537 200.779C284.392 202.349 286.418 203.672 288.576 204.75L287.743 209.155C287.478 210.555 288.387 211.916 289.807 212.181L301.224 214.355C301.394 214.393 301.546 214.393 301.716 214.393C302.928 214.393 304.007 213.523 304.253 212.294L305.086 207.889C307.491 207.681 309.876 207.189 312.167 206.414L314.685 210.12C315.064 210.687 315.67 211.084 316.332 211.197C317.014 211.33 317.695 211.179 318.263 210.8L327.881 204.277C329.055 203.483 329.377 201.876 328.563 200.685L326.045 196.979C327.616 195.126 328.942 193.103 330.021 190.947L334.394 191.836ZM326.083 187.09C324.852 190.04 323.091 192.706 320.857 195.013C320.005 195.882 319.892 197.244 320.573 198.246L322.788 201.498L317.449 205.128L315.234 201.876C314.553 200.874 313.246 200.477 312.11 200.931C309.138 202.16 305.995 202.802 302.795 202.859C301.564 202.878 300.523 203.748 300.296 204.958L299.558 208.815L293.215 207.605L293.953 203.748C294.181 202.538 293.537 201.347 292.401 200.874C289.447 199.645 286.778 197.887 284.468 195.655C283.597 194.805 282.234 194.691 281.212 195.372L277.955 197.584L274.32 192.252L277.576 190.04C278.58 189.359 278.977 188.055 278.523 186.92C277.292 183.952 276.649 180.813 276.592 177.618C276.573 176.389 275.702 175.349 274.49 175.122L270.628 174.384L271.84 168.05L275.702 168.788C276.895 169.015 278.107 168.372 278.58 167.237C279.811 164.288 281.571 161.622 283.805 159.315C284.657 158.445 284.771 157.084 284.089 156.063L281.874 152.811L287.213 149.181L289.428 152.433C290.11 153.435 291.416 153.832 292.552 153.359C295.525 152.13 298.668 151.487 301.867 151.431C303.098 151.412 304.139 150.542 304.367 149.332L305.105 145.475L311.448 146.685L310.709 150.542C310.482 151.733 311.126 152.943 312.262 153.416C315.215 154.645 317.885 156.403 320.195 158.634C321.065 159.485 322.429 159.599 323.451 158.918L326.707 156.706L330.343 162.038L327.086 164.25C326.083 164.931 325.685 166.235 326.158 167.37C327.389 170.338 328.033 173.477 328.09 176.672C328.109 177.901 328.979 178.941 330.191 179.168L334.053 179.905L332.842 186.239L328.979 185.502C327.749 185.332 326.556 185.975 326.083 187.09Z" fill="#E5E5E5" stroke="#00C5B7" stroke-width="0.25" stroke-miterlimit="10" stroke-linecap="round" stroke-linejoin="round"></path><path d="M305.825 158.994C300.959 158.067 295.998 159.088 291.909 161.868C287.8 164.647 285.036 168.863 284.109 173.742C283.181 178.601 284.203 183.536 286.986 187.639C289.769 191.742 293.992 194.502 298.876 195.429C300.05 195.655 301.205 195.769 302.36 195.769C311.088 195.769 318.907 189.567 320.592 180.7C322.524 170.641 315.897 160.903 305.825 158.994ZM315.518 179.716C314.856 183.233 312.849 186.277 309.876 188.282C306.923 190.286 303.344 191.023 299.823 190.361C296.301 189.7 293.253 187.695 291.246 184.727C289.239 181.777 288.501 178.204 289.164 174.687C289.826 171.17 291.833 168.126 294.806 166.122C297.059 164.59 299.652 163.796 302.303 163.796C303.155 163.796 303.988 163.872 304.84 164.042C312.129 165.441 316.9 172.456 315.518 179.716Z" fill="#E5E5E5" stroke="#00C5B7" stroke-width="0.25" stroke-miterlimit="10" stroke-linecap="round" stroke-linejoin="round"></path><path d="M219.68 149.294C219.831 150.353 220.816 151.09 221.876 150.939L225.208 150.466C225.946 152.13 226.874 153.681 227.991 155.137L225.965 157.84C225.662 158.256 225.53 158.767 225.606 159.277C225.681 159.788 225.946 160.242 226.363 160.563L233.349 165.8C234.201 166.443 235.432 166.273 236.075 165.403L238.101 162.7C239.805 163.361 241.566 163.815 243.365 164.042L243.838 167.37C243.914 167.88 244.179 168.334 244.595 168.655C244.936 168.901 245.334 169.053 245.769 169.053C245.864 169.053 245.959 169.053 246.053 169.034L254.706 167.786C255.766 167.634 256.504 166.651 256.353 165.592L255.879 162.265C257.545 161.527 259.117 160.601 260.556 159.485L263.263 161.508C264.115 162.151 265.346 161.981 265.99 161.111L271.234 154.134C271.878 153.284 271.707 152.055 270.836 151.412L268.11 149.37C268.773 147.668 269.227 145.91 269.454 144.113L272.787 143.641C273.298 143.565 273.752 143.3 274.055 142.884C274.358 142.468 274.49 141.958 274.415 141.447L273.165 132.807C273.014 131.748 272.029 131.01 270.969 131.162L267.637 131.634C266.898 129.971 265.971 128.401 264.854 126.964L266.879 124.26C267.182 123.845 267.315 123.334 267.239 122.824C267.163 122.313 266.898 121.859 266.482 121.538L259.496 116.3C259.079 115.998 258.568 115.866 258.057 115.941C257.545 116.017 257.091 116.281 256.769 116.697L254.743 119.401C253.039 118.739 251.279 118.286 249.48 118.059L249.007 114.731C248.855 113.672 247.871 112.935 246.81 113.086L238.158 114.334C237.647 114.41 237.193 114.674 236.871 115.09C236.568 115.506 236.435 116.017 236.511 116.527L236.984 119.855C235.318 120.592 233.747 121.519 232.308 122.634L229.6 120.611C229.184 120.309 228.673 120.176 228.162 120.252C227.65 120.328 227.196 120.592 226.874 121.008L221.63 127.985C221.327 128.401 221.194 128.912 221.27 129.422C221.346 129.933 221.611 130.387 222.027 130.708L224.735 132.731C224.072 134.433 223.618 136.191 223.39 137.987L220.058 138.46C219.547 138.536 219.093 138.8 218.771 139.216C218.468 139.632 218.335 140.143 218.411 140.653L219.68 149.294ZM225.473 141.599C226.382 141.466 227.082 140.71 227.139 139.803C227.291 137.401 227.878 135.076 228.919 132.901C229.316 132.069 229.051 131.086 228.332 130.519L225.965 128.742L228.881 124.866L231.248 126.643C231.986 127.191 233.008 127.153 233.69 126.548C235.507 124.941 237.571 123.731 239.824 122.899C240.695 122.578 241.206 121.708 241.093 120.8L240.676 117.889L245.485 117.208L245.902 120.12C246.034 121.027 246.792 121.727 247.7 121.784C250.105 121.935 252.434 122.521 254.611 123.561C255.444 123.958 256.428 123.693 256.996 122.975L258.776 120.611L262.657 123.523L260.878 125.887C260.329 126.624 260.366 127.645 260.972 128.326C262.582 130.141 263.793 132.202 264.626 134.452C264.948 135.321 265.819 135.832 266.728 135.718L269.644 135.302L270.325 140.105L267.41 140.521C266.501 140.653 265.8 141.41 265.743 142.317C265.592 144.718 265.005 147.044 263.964 149.237C263.566 150.069 263.831 151.053 264.551 151.62L266.917 153.397L264.002 157.273L261.635 155.496C260.897 154.947 259.874 154.985 259.193 155.59C257.375 157.197 255.311 158.408 253.058 159.239C252.187 159.561 251.676 160.431 251.79 161.338L252.206 164.25L247.397 164.931L246.981 162.019C246.848 161.111 246.091 160.412 245.182 160.355C242.778 160.204 240.449 159.599 238.253 158.578C237.988 158.464 237.704 158.389 237.439 158.389C236.833 158.389 236.265 158.672 235.886 159.164L234.106 161.527L230.225 158.616L232.005 156.252C232.554 155.515 232.516 154.494 231.91 153.813C230.301 151.998 229.089 149.937 228.256 147.687C227.934 146.817 227.063 146.307 226.155 146.42L223.239 146.836L222.557 142.034L225.473 141.599Z" fill="#E5E5E5" stroke="#00C5B7" stroke-width="0.25" stroke-miterlimit="10" stroke-linecap="round" stroke-linejoin="round"></path><path d="M246.432 154.985C247.095 154.985 247.757 154.947 248.42 154.853C256.031 153.756 261.351 146.685 260.253 139.065C259.155 131.464 252.074 126.151 244.444 127.248C236.833 128.345 231.513 135.416 232.611 143.036C233.614 149.975 239.597 154.985 246.432 154.985ZM245.012 131.086C245.504 131.01 245.978 130.992 246.451 130.992C251.373 130.992 255.69 134.622 256.41 139.632C257.205 145.116 253.361 150.239 247.871 151.015C242.361 151.809 237.249 147.971 236.473 142.487C235.678 136.985 239.503 131.88 245.012 131.086Z" fill="#E5E5E5" stroke="#00C5B7" stroke-width="0.25" stroke-miterlimit="10" stroke-linecap="round" stroke-linejoin="round"></path><path d="M410.789 322.998C412.834 323.206 415.201 322.431 416.564 320.824C417.7 319.481 418.646 317.836 418.571 316.002C418.495 314.111 417.794 312.618 416.564 311.181C415.201 309.574 412.853 308.798 410.789 309.006C408.877 309.195 407.23 309.649 405.829 311.048C404.617 312.258 403.689 314.263 403.784 316.002C403.86 317.817 404.466 319.689 405.829 320.956C407.287 322.279 408.839 322.809 410.789 322.998Z" fill="#FF9A31"></path><path d="M436.349 317.043C436.463 317.043 436.463 316.853 436.349 316.853C436.235 316.853 436.235 317.043 436.349 317.043Z" fill="#00C5B7"></path><path d="M437.56 322.884C437.409 323.055 437.257 323.225 437.125 323.395C436.519 324.076 436.519 324.964 437.125 325.645C437.276 325.815 437.428 325.985 437.56 326.156C438.923 327.687 441.498 326.439 441.498 324.529C441.498 322.601 438.923 321.334 437.56 322.884Z" fill="#FF9A31"></path><g clip-path="url(#clip0_132_1559)"><path d="M462.58 53.34C466.02 53.34 466.02 48 462.58 48C459.14 48 459.14 53.34 462.58 53.34Z" fill="#1E5B95"></path><path d="M490.58 33.34C494.02 33.34 494.02 28 490.58 28C487.14 28 487.14 33.34 490.58 33.34Z" fill="#1E5B95"></path></g><defs><clipPath id="clip0_132_1559"><rect width="33.16" height="25.34" fill="white" transform="translate(460 28)"></rect></clipPath></defs></svg> 